<?xml version="1.0" encoding="UTF-8" standalone="no"?>
<svg
   xmlns:dc="http://purl.org/dc/elements/1.1/"
   xmlns:cc="http://creativecommons.org/ns#"
   xmlns:rdf="http://www.w3.org/1999/02/22-rdf-syntax-ns#"
   xmlns:svg="http://www.w3.org/2000/svg"
   xmlns="http://www.w3.org/2000/svg"
   xmlns:sodipodi="http://sodipodi.sourceforge.net/DTD/sodipodi-0.dtd"
   xmlns:inkscape="http://www.inkscape.org/namespaces/inkscape"
   width="81"
   height="80"
   viewBox="0 0 81 80"
   version="1.1"
   id="svg238"
   sodipodi:docname="pluginIcon.svg"
   inkscape:version="0.92.4 (5da689c313, 2019-01-14)">
  <metadata
     id="metadata242">
    <rdf:RDF>
      <cc:Work
         rdf:about="">
        <dc:format>image/svg+xml</dc:format>
        <dc:type
           rdf:resource="http://purl.org/dc/dcmitype/StillImage" />
      </cc:Work>
    </rdf:RDF>
  </metadata>
  <sodipodi:namedview
     pagecolor="#ffffff"
     bordercolor="#666666"
     borderopacity="1"
     objecttolerance="10"
     gridtolerance="10"
     guidetolerance="10"
     inkscape:pageopacity="0"
     inkscape:pageshadow="2"
     inkscape:window-width="2736"
     inkscape:window-height="1784"
     id="namedview240"
     showgrid="false"
     inkscape:zoom="10.175"
     inkscape:cx="45.712913"
     inkscape:cy="48.045906"
     inkscape:window-x="0"
     inkscape:window-y="1080"
     inkscape:window-maximized="1"
     inkscape:current-layer="g236" />
  <defs
     id="defs216">
    <linearGradient
       id="pluginsdk_80-a"
       x1="-0.01035717"
       x2="33.427932"
       y1="40.749963"
       y2="40.749963"
       gradientTransform="scale(0.89792871,1.1136742)"
       gradientUnits="userSpaceOnUse">
      <stop
         offset="25.81%"
         stop-color="#F97A12"
         id="stop146" />
      <stop
         offset="45.91%"
         stop-color="#B07B58"
         id="stop148" />
      <stop
         offset="72.41%"
         stop-color="#577BAE"
         id="stop150" />
      <stop
         offset="91.05%"
         stop-color="#1E7CE5"
         id="stop152" />
      <stop
         offset="100%"
         stop-color="#087CFA"
         id="stop154" />
    </linearGradient>
    <linearGradient
       id="pluginsdk_80-b"
       x1="40.008239"
       x2="68.705272"
       y1="18.115879"
       y2="40.733697"
       gradientTransform="scale(0.8201327,1.2193149)"
       gradientUnits="userSpaceOnUse">
      <stop
         offset="0%"
         stop-color="#F97A12"
         id="stop157" />
      <stop
         offset="7.18%"
         stop-color="#CB7A3E"
         id="stop159" />
      <stop
         offset="15.41%"
         stop-color="#9E7B6A"
         id="stop161" />
      <stop
         offset="24.2%"
         stop-color="#757B91"
         id="stop163" />
      <stop
         offset="33.44%"
         stop-color="#537BB1"
         id="stop165" />
      <stop
         offset="43.24%"
         stop-color="#387CCC"
         id="stop167" />
      <stop
         offset="53.81%"
         stop-color="#237CE0"
         id="stop169" />
      <stop
         offset="65.52%"
         stop-color="#147CEF"
         id="stop171" />
      <stop
         offset="79.25%"
         stop-color="#0B7CF7"
         id="stop173" />
      <stop
         offset="100%"
         stop-color="#087CFA"
         id="stop175" />
    </linearGradient>
    <linearGradient
       id="pluginsdk_80-c"
       x1="64.109042"
       x2="55.996877"
       y1="35.495809"
       y2="-2.393176"
       gradientTransform="scale(0.82572282,1.2110601)"
       gradientUnits="userSpaceOnUse">
      <stop
         offset="0%"
         stop-color="#FE315D"
         id="stop178" />
      <stop
         offset="7.84%"
         stop-color="#CB417E"
         id="stop180" />
      <stop
         offset="16.01%"
         stop-color="#9E4E9B"
         id="stop182" />
      <stop
         offset="24.74%"
         stop-color="#755BB4"
         id="stop184" />
      <stop
         offset="33.92%"
         stop-color="#5365CA"
         id="stop186" />
      <stop
         offset="43.65%"
         stop-color="#386DDB"
         id="stop188" />
      <stop
         offset="54.14%"
         stop-color="#2374E9"
         id="stop190" />
      <stop
         offset="65.76%"
         stop-color="#1478F3"
         id="stop192" />
      <stop
         offset="79.4%"
         stop-color="#0B7BF8"
         id="stop194" />
      <stop
         offset="100%"
         stop-color="#087CFA"
         id="stop196" />
    </linearGradient>
    <linearGradient
       id="pluginsdk_80-d"
       x1="15.433212"
       x2="57.18166"
       y1="14.694787"
       y2="80.800917"
       gradientTransform="scale(0.95197164,1.0504515)"
       gradientUnits="userSpaceOnUse">
      <stop
         offset="0%"
         stop-color="#FE315D"
         id="stop199" />
      <stop
         offset="4.023%"
         stop-color="#F63462"
         id="stop201" />
      <stop
         offset="10.37%"
         stop-color="#DF3A71"
         id="stop203" />
      <stop
         offset="16.67%"
         stop-color="#C24383"
         id="stop205" />
      <stop
         offset="29.12%"
         stop-color="#AD4A91"
         id="stop207" />
      <stop
         offset="54.98%"
         stop-color="#755BB4"
         id="stop209" />
      <stop
         offset="91.75%"
         stop-color="#1D76ED"
         id="stop211" />
      <stop
         offset="100%"
         stop-color="#087CFA"
         id="stop213" />
    </linearGradient>
  </defs>
  <g
     fill="none"
     fill-rule="evenodd"
     id="g236">
    <text
       xml:space="preserve"
       style="font-style:normal;font-weight:normal;font-size:40px;line-height:1.25;font-family:sans-serif;letter-spacing:0px;word-spacing:0px;fill:#000000;fill-opacity:1;stroke:none"
       x="32.825554"
       y="66.732185"
       id="text114"><tspan
         sodipodi:role="line"
         id="tspan112"
         x="32.825554"
         y="102.12281"
         style="fill:#ffffff" /></text>
    <text
       xml:space="preserve"
       style="font-style:normal;font-weight:normal;font-size:40px;line-height:1.25;font-family:sans-serif;letter-spacing:0px;word-spacing:0px;fill:#000000;fill-opacity:1;stroke:none"
       x="46.781326"
       y="49.729729"
       id="text118"><tspan
         sodipodi:role="line"
         id="tspan116"
         x="46.781326"
         y="85.120354" /></text>
    <rect
       style="fill:#44aa00;fill-opacity:1;stroke-width:0.99837321"
       id="rect133"
       width="60"
       height="60"
       x="9.7297287"
       y="10.270269"
       ry="12.972973" />
    <path
       inkscape:connector-curvature="0"
       id="text246"
       d="m 37.954,43.586037 c -1.390625,0 -2.601563,0.199219 -3.632813,0.597657 -1.023437,0.390625 -1.871093,0.953125 -2.542968,1.6875 -0.671875,0.726562 -1.175782,1.609375 -1.511719,2.648437 -0.328125,1.039063 -0.492188,2.203125 -0.492188,3.492188 0,1.242187 0.164063,2.386718 0.492188,3.433593 0.335937,1.046875 0.84375,1.953125 1.523437,2.71875 0.6875,0.757813 1.554688,1.351563 2.601563,1.78125 1.046875,0.421875 2.285156,0.632813 3.714844,0.632813 1.09375,0 2.042968,-0.132813 2.847656,-0.398438 0.8125,-0.273437 1.511719,-0.628906 2.097656,-1.066406 0.585938,-0.4375 1.074219,-0.941406 1.464844,-1.511719 0.390625,-0.570312 0.707032,-1.152343 0.949219,-1.746093 L 42.454,54.71885 c -0.148437,0.382812 -0.339844,0.761719 -0.574219,1.136719 -0.226562,0.375 -0.515625,0.710937 -0.867187,1.007812 -0.34375,0.296875 -0.753907,0.539063 -1.230469,0.726563 -0.46875,0.179687 -1.027344,0.269531 -1.675781,0.269531 -0.859375,0 -1.597657,-0.144531 -2.214844,-0.433594 -0.609375,-0.289062 -1.109375,-0.691406 -1.5,-1.207031 -0.390625,-0.515625 -0.679688,-1.128906 -0.867188,-1.839844 -0.179687,-0.71875 -0.269531,-1.507812 -0.269531,-2.367187 0,-0.867188 0.08984,-1.648438 0.269531,-2.34375 0.1875,-0.703125 0.472657,-1.304688 0.855469,-1.804688 0.390625,-0.5 0.886719,-0.882812 1.488281,-1.148437 0.601563,-0.273438 1.320313,-0.410157 2.15625,-0.410157 0.59375,0 1.125,0.07813 1.59375,0.234375 0.46875,0.148438 0.875,0.347657 1.21875,0.597657 0.351563,0.25 0.640625,0.539062 0.867188,0.867187 0.226562,0.320313 0.394531,0.65625 0.503906,1.007813 l 3.046876,-0.832032 c -0.21875,-0.671875 -0.523438,-1.285156 -0.914063,-1.839843 -0.382813,-0.5625 -0.871094,-1.046875 -1.464844,-1.453125 C 42.289938,44.472756 41.590719,44.152444 40.778219,43.925881 39.973531,43.699319 39.032125,43.586037 37.954,43.586037 Z m 17.613282,0 c -1.429688,0 -2.675782,0.199219 -3.738282,0.597657 -1.054687,0.390625 -1.933594,0.953125 -2.636718,1.6875 -0.695313,0.726562 -1.214844,1.609375 -1.558594,2.648437 -0.34375,1.039063 -0.515625,2.203125 -0.515625,3.492188 0,1.242187 0.160156,2.386718 0.480469,3.433593 0.328124,1.046875 0.832031,1.953125 1.511718,2.71875 0.679688,0.757813 1.546875,1.351563 2.601563,1.78125 1.054687,0.421875 2.3125,0.632813 3.773437,0.632813 0.882813,0 1.714844,-0.07813 2.496094,-0.234375 0.789062,-0.15625 1.515625,-0.363281 2.179688,-0.621094 0.664062,-0.265625 1.261718,-0.570312 1.792968,-0.914062 0.53125,-0.351563 0.984375,-0.71875 1.359375,-1.101563 v -6.070312 h -7.195312 v 2.554687 h 4.03125 v 2.285156 c -0.203125,0.179688 -0.464844,0.355469 -0.785157,0.527344 -0.3125,0.164063 -0.667968,0.3125 -1.066406,0.445313 -0.390625,0.125 -0.816406,0.226562 -1.277344,0.304687 -0.460937,0.07813 -0.941406,0.117188 -1.441406,0.117188 -0.851562,0 -1.589844,-0.144532 -2.214844,-0.433594 -0.625,-0.289063 -1.144531,-0.691406 -1.558593,-1.207031 -0.40625,-0.515625 -0.710938,-1.132813 -0.914063,-1.851563 -0.195312,-0.71875 -0.292968,-1.507812 -0.292968,-2.367187 0,-0.867188 0.09766,-1.648438 0.292968,-2.34375 0.195313,-0.703125 0.496094,-1.304688 0.902344,-1.804688 0.40625,-0.5 0.921875,-0.882812 1.546875,-1.148437 0.625,-0.273438 1.367187,-0.410157 2.226563,-0.410157 0.585937,0 1.105468,0.07031 1.558593,0.210938 0.460938,0.132812 0.863281,0.316406 1.207031,0.550781 0.351563,0.226563 0.644532,0.496094 0.878907,0.808594 0.234375,0.304687 0.421875,0.628906 0.5625,0.972656 l 3.1875,-0.960937 C 62.719625,47.230569 62.3915,46.640725 61.977438,46.117287 61.571188,45.586037 61.063375,45.132912 60.454,44.757912 59.852438,44.382912 59.145406,44.09385 58.332906,43.890725 57.528219,43.6876 56.606344,43.586037 55.567282,43.586037 Z m -41.179688,0.246094 v 2.671875 h 5.33203 V 60.34385 h 3.457032 V 46.504006 h 5.34375 v -2.671875 z"
       style="font-style:normal;font-weight:normal;font-size:40px;line-height:1.25;font-family:sans-serif;letter-spacing:0px;word-spacing:0px;fill:#ffffff;fill-opacity:1;fill-rule:nonzero;stroke:none" />
    <path
       style="font-style:normal;font-weight:normal;font-size:40px;line-height:1.25;font-family:sans-serif;letter-spacing:0px;word-spacing:0px;fill:#000000;fill-opacity:1;stroke:none;stroke-width:0.94705087"
       d="m 40.760318,17.162463 c -1.791191,0 -3.098096,0.41259 -3.920718,1.23777 -3.17107,3.186111 -6.62077,7.357854 -10.349101,12.515228 -0.185752,0.229217 -0.364872,0.343825 -0.537356,0.343825 -0.225559,0 -0.603698,-0.68765 -1.134422,-2.06295 -0.265361,-0.733493 -0.65677,-1.100239 -1.174224,-1.100239 -0.437847,0 -0.942035,0.137529 -1.512561,0.412589 -0.928766,0.446973 -1.393149,0.911136 -1.393149,1.392491 0,0.446973 0.34497,1.547213 1.03491,3.30072 0.610331,1.581595 1.141055,2.458348 1.59217,2.630261 0.172485,0.06877 0.736378,0.103147 1.691679,0.103147 0.942035,0 1.565634,-0.206295 1.8708,-0.618884 4.378466,-5.91379 9.128438,-11.529597 14.249916,-16.847423 0.437846,-0.469894 0.65677,-0.785067 0.65677,-0.945519 0,-0.103147 -0.07297,-0.189103 -0.218924,-0.257868 -0.145948,-0.06877 -0.431212,-0.103148 -0.85579,-0.103148 z"
       id="text128"
       inkscape:connector-curvature="0" />
  </g>
</svg>
